<?xml version="1.0" encoding="UTF-8"?>
<svg version="1.1" xmlns="http://www.w3.org/2000/svg" width="3240" height="3240">
<path d="M0 0 C0.78375 0.04125 1.5675 0.0825 2.375 0.125 C8.17563515 11.48109082 13.55811453 22.97954384 18.75 34.625 C19.52982949 36.3671057 20.31002995 38.10904539 21.09057617 39.85083008 C22.70908587 43.46324103 24.32601865 47.07635161 25.94189453 50.68994141 C29.46236689 58.5588494 33.00489412 66.41782182 36.54571533 74.27758789 C42.51251284 87.52466301 48.46475349 100.77819662 54.40356445 114.0378418 C59.04874101 124.40562082 63.71126994 134.76555681 68.375 145.125 C76.23430401 162.58322572 84.07184731 180.05105868 91.89746094 197.52441406 C98.32047732 211.86464759 104.75574523 226.1992635 111.20568848 240.52740479 C127.87117731 277.54935589 127.87117731 277.54935589 134.375 292.125 C134.90834961 293.31931641 135.44169922 294.51363281 135.99121094 295.74414062 C137.56114669 299.26494549 139.12535752 302.78823149 140.6875 306.3125 C141.16243896 307.37718506 141.63737793 308.44187012 142.12670898 309.53881836 C142.55540283 310.50956299 142.98409668 311.48030762 143.42578125 312.48046875 C143.80387939 313.33278076 144.18197754 314.18509277 144.5715332 315.06323242 C145.375 317.125 145.375 317.125 145.375 319.125 C146.179375 318.774375 146.98375 318.42375 147.8125 318.0625 C152.64477447 316.79084882 157.81918292 316.84709146 162.375 319.125 C162.705 318.465 163.035 317.805 163.375 317.125 C162.76011719 317.07601563 162.14523437 317.02703125 161.51171875 316.9765625 C160.70347656 316.90179687 159.89523437 316.82703125 159.0625 316.75 C158.26199219 316.68039062 157.46148438 316.61078125 156.63671875 316.5390625 C154.375 316.125 154.375 316.125 151.375 314.125 C151.98202632 307.4477105 154.15131394 301.42372004 156.375 295.125 C155.715 294.465 155.055 293.805 154.375 293.125 C154.1171875 290.91796875 154.1171875 290.91796875 154.25 288.3125 C154.26804687 287.46042969 154.28609375 286.60835937 154.3046875 285.73046875 C155.99513428 281.61540304 159.56370606 280.15576795 163.375 278.125 C163.3342334 277.4544458 163.2934668 276.7838916 163.25146484 276.09301758 C163.07258293 273.04173537 162.91112758 269.98976911 162.75 266.9375 C162.68554688 265.88240234 162.62109375 264.82730469 162.5546875 263.74023438 C162.503125 262.71865234 162.4515625 261.69707031 162.3984375 260.64453125 C162.31988525 259.23844604 162.31988525 259.23844604 162.23974609 257.80395508 C162.39446354 254.73948834 162.80618774 252.77262575 164.375 250.125 C166.025 249.795 167.675 249.465 169.375 249.125 C169.375 243.185 169.375 237.245 169.375 231.125 C170.695 230.465 172.015 229.805 173.375 229.125 C173.375 228.135 173.375 227.145 173.375 226.125 C172.77171875 225.94066406 172.1684375 225.75632812 171.546875 225.56640625 C167.89160429 224.23989672 165.14049915 223.238088 162.88671875 219.9609375 C161.34982917 216.52948222 160.375 213.91028979 160.375 210.125 C158.7971875 209.7846875 158.7971875 209.7846875 157.1875 209.4375 C153.09073733 208.55388452 150.87067085 206.43681106 148.375 203.125 C147.84561207 199.93054523 148.03789006 196.84611148 148.25 193.625 C148.75955157 185.92372857 148.75955157 185.92372857 145.375 179.125 C145.625 176.625 145.625 176.625 146.375 174.125 C147.10465366 171.56217258 147.10465366 171.56217258 147.375 169.125 C146.715 168.135 146.055 167.145 145.375 166.125 C145.25 163.4375 145.25 163.4375 145.375 161.125 C146.035 161.125 146.695 161.125 147.375 161.125 C147.313125 159.454375 147.313125 159.454375 147.25 157.75 C147.375 154.125 147.375 154.125 149.375 152.125 C150.365 152.125 151.355 152.125 152.375 152.125 C152.00659186 147.84952663 151.60598285 143.85871024 150.3125 139.75 C148.77351576 133.79926093 148.88304508 127.78155656 150 121.75 C150.45715502 118.54991486 149.59842474 117.07561262 148.375 114.125 C148.05192308 107.77115385 148.05192308 107.77115385 149.375 105.125 C148.055 105.125 146.735 105.125 145.375 105.125 C145.106875 105.888125 144.83875 106.65125 144.5625 107.4375 C143.39771111 110.07360118 142.71502598 111.47831505 140.375 113.125 C137.875 113.5625 137.875 113.5625 135.375 113.125 C134.941875 112.465 134.50875 111.805 134.0625 111.125 C132.60454208 108.92770353 132.60454208 108.92770353 130.484375 108.9296875 C129.76765625 108.95289063 129.0509375 108.97609375 128.3125 109 C127.013125 109.04125 125.71375 109.0825 124.375 109.125 C122.375 107.125 122.375 107.125 122.25 104.5 C122.29125 103.71625 122.3325 102.9325 122.375 102.125 C123.86 101.63 123.86 101.63 125.375 101.125 C125.09258359 99.66484709 124.79873386 98.20690207 124.5 96.75 C124.33757813 95.93789062 124.17515625 95.12578125 124.0078125 94.2890625 C123.50841068 91.93826077 123.50841068 91.93826077 121.375 90.125 C119.72295544 89.42288106 118.05576231 88.75528587 116.375 88.125 C115.715 87.795 115.055 87.465 114.375 87.125 C112.35572489 87.73078253 110.35246603 88.39419734 108.375 89.125 C106.8125 87.9375 106.8125 87.9375 105.375 86.125 C105.4375 83.5625 105.4375 83.5625 106.375 81.125 C108.375 80 108.375 80 110.375 79.125 C110.705 78.135 111.035 77.145 111.375 76.125 C113.01049805 74.84155273 113.01049805 74.84155273 115.13671875 73.55859375 C115.91966309 73.07745117 116.70260742 72.59630859 117.50927734 72.10058594 C118.35184082 71.59301758 119.1944043 71.08544922 120.0625 70.5625 C126.9242227 66.35680294 133.57110676 62.02416751 139.9206543 57.07202148 C142.3588234 55.23913345 144.08465066 54.16612597 147.1328125 53.734375 C149.375 54.125 149.375 54.125 151.375 56.125 C151.6225 56.95 151.87 57.775 152.125 58.625 C153.88133119 63.54272732 156.60871535 67.71517703 159.375 72.125 C159.87128906 72.92421875 160.36757812 73.7234375 160.87890625 74.546875 C162.03836568 76.40993802 163.20579958 78.26803463 164.375 80.125 C164.49875 79.34125 164.6225 78.5575 164.75 77.75 C165.375 75.125 165.375 75.125 167.375 73.125 C170.37010867 73.31617715 172.62629061 73.70073135 175.25 75.1875 C177.10693849 78.38556073 176.55425295 81.48018997 176.375 85.125 C177.035 85.125 177.695 85.125 178.375 85.125 C178.66375 86.011875 178.9525 86.89875 179.25 87.8125 C179.62125 88.905625 179.9925 89.99875 180.375 91.125 C180.601875 91.90875 180.82875 92.6925 181.0625 93.5 C182.39480783 96.16461566 183.64318185 97.38458765 185.75 99.4375 C193.78490848 108.3782228 193.65466519 121.2631001 193.3203125 132.59765625 C193.38931278 137.04817462 194.05995885 141.80995885 197.375 145.125 C197.85703111 149.46328002 196.66287645 151.51719482 194.375 155.125 C193.66356912 157.10951771 192.98508664 159.10702112 192.375 161.125 C193.591875 160.856875 194.80875 160.58875 196.0625 160.3125 C199.40943912 159.94326472 200.2928808 160.08310245 203.4375 161.6875 C206.55057795 167.21070282 205.54230844 173.02562014 204.375 179.125 C203.715 179.785 203.055 180.445 202.375 181.125 C202.35246557 183.57463177 202.35246557 183.57463177 202.75 186.25 C202.91628906 187.61511719 202.91628906 187.61511719 203.0859375 189.0078125 C203.18132813 189.70648437 203.27671875 190.40515625 203.375 191.125 C204.261875 191.24875 205.14875 191.3725 206.0625 191.5 C213.20389734 192.84743346 213.20389734 192.84743346 215.75 195.625 C218.24324545 197.92645734 221.13885352 198.33122822 224.375 199.125 C224.705 200.445 225.035 201.765 225.375 203.125 C228.015 203.125 230.655 203.125 233.375 203.125 C239.375 216.55357143 239.375 216.55357143 239.375 223.125 C240.365 223.455 241.355 223.785 242.375 224.125 C245.48545815 228.12916725 247.69697766 232.44670013 247.875 237.5625 C247.71 238.738125 247.545 239.91375 247.375 241.125 C244.375 243.125 244.375 243.125 241.3125 242.8125 C238.375 242.125 238.375 242.125 236.375 241.125 C236.375 241.785 236.375 242.445 236.375 243.125 C237.035 243.49625 237.695 243.8675 238.375 244.25 C240.375 246.125 240.375 246.125 240.75 249.875 C240.55802475 253.86217837 239.63376486 257.34870543 238.375 261.125 C239.365 261.455 240.355 261.785 241.375 262.125 C241.11938677 264.4681213 240.78229228 266.80343403 240.375 269.125 C237.80606162 270.40946919 235.60923663 270.45477144 232.75 270.6875 C231.24566406 270.81318359 231.24566406 270.81318359 229.7109375 270.94140625 C228.94007813 271.00199219 228.16921875 271.06257813 227.375 271.125 C225.96983833 274.23372291 225.96983833 274.23372291 227.8515625 277.57421875 C228.56206701 278.98982469 229.27861567 280.40240728 230 281.8125 C241.07332864 304.4254027 241.07332864 304.4254027 239.375 316.125 C237.31356463 320.10062536 235.18348372 322.79098133 231.375 325.125 C228.359375 325.63671875 228.359375 325.63671875 225.125 325.8125 C224.04734375 325.87824219 222.9696875 325.94398438 221.859375 326.01171875 C221.03953125 326.04910156 220.2196875 326.08648438 219.375 326.125 C219.705 328.435 220.035 330.745 220.375 333.125 C221.365 333.455 222.355 333.785 223.375 334.125 C223.68269231 340.89423077 223.68269231 340.89423077 221.375 344.125 C218.7544668 345.81566658 217.54870278 346.125 214.375 346.125 C215.07579254 349.57911499 215.07579254 349.57911499 216.375 353.125 C218.37736953 354.37691349 218.37736953 354.37691349 220.375 355.125 C220.93436844 372.00963996 220.93436844 372.00963996 217.375 380.125 C216.375 381.125 216.375 381.125 214 381.25 C211.375 381.125 211.375 381.125 208.375 380.125 C205.73695411 380.51897335 205.73695411 380.51897335 203.375 381.125 C203.375 382.115 203.375 383.105 203.375 384.125 C205.025 384.455 206.675 384.785 208.375 385.125 C209.125 387.25 209.125 387.25 209.375 390.125 C206.59422923 395.02052977 203.06442603 398.65016102 198.9375 402.4375 C198.37740234 402.97439453 197.81730469 403.51128906 197.24023438 404.06445312 C196.68787109 404.57556641 196.13550781 405.08667969 195.56640625 405.61328125 C195.07342041 406.07259033 194.58043457 406.53189941 194.07250977 407.00512695 C191.90801436 408.43307754 189.91758 408.74589304 187.375 409.125 C191.68612452 419.8105791 196.2145713 430.3600289 201.05291748 440.81723022 C202.82050728 444.63885106 204.57590105 448.46607169 206.33203125 452.29296875 C206.8568811 453.43597191 206.8568811 453.43597191 207.39233398 454.60206604 C210.39527095 461.15002388 213.33704457 467.72401389 216.25 474.3125 C221.22569703 485.56220224 226.26027249 496.78449699 231.3125 508 C232.09807502 509.74421666 232.8836382 511.48843865 233.66918945 513.23266602 C234.05430191 514.0877626 234.43941437 514.94285919 234.8361969 515.8238678 C235.2176738 516.67089767 235.5991507 517.51792755 235.9921875 518.390625 C236.37080429 519.23124985 236.74942108 520.07187469 237.13951111 520.93797302 C240.91781168 529.32791772 244.69369312 537.71900693 248.44165039 546.12255859 C251.19005161 552.28040756 253.96547222 558.42377241 256.78166199 564.5508728 C258.38459518 568.04312132 259.97687362 571.54017833 261.56808472 575.03778076 C262.35058119 576.75066996 263.13789324 578.46136815 263.9302063 580.16973877 C265.03617038 582.55563024 266.12517926 584.94861023 267.2109375 587.34375 C267.54664261 588.05699432 267.88234772 588.77023865 268.22822571 589.50509644 C269.9787449 593.41591297 270.88098435 596.01231826 269.375 600.125 C267.45353226 602.04646774 264.58781685 601.24516542 262.03137207 601.24942017 C261.11859497 601.24582489 260.20581787 601.24222961 259.26538086 601.23852539 C258.30938492 601.23867142 257.35338898 601.23881744 256.36842346 601.2389679 C253.19220755 601.23826835 250.01604948 601.23047403 246.83984375 601.22265625 C244.64408907 601.22079222 242.44833398 601.21936825 240.25257874 601.21836853 C234.46079367 601.21454219 228.6690335 601.20471091 222.8772583 601.19366455 C216.97221209 601.18345293 211.06716187 601.17887145 205.16210938 601.17382812 C193.56639528 601.16308875 181.97069971 601.14601093 170.375 601.125 C168.7859044 597.63849489 167.19825262 594.15133408 165.61083984 590.6640625 C164.94283607 589.19851929 164.94283607 589.19851929 164.26133728 587.70336914 C160.7257361 579.933441 157.29188734 572.12448807 153.92504883 564.2802124 C152.24885419 560.37495317 150.56527921 556.47287266 148.8828125 552.5703125 C148.52628601 551.74282501 148.16975952 550.91533752 147.8024292 550.06277466 C144.94238806 543.42887743 142.06401549 536.80305713 139.1796875 530.1796875 C138.73879791 529.16706848 138.29790833 528.15444946 137.84365845 527.11114502 C136.10067121 523.10855272 134.35741719 519.10607856 132.61212158 515.10449219 C127.10743759 502.48255032 121.68615761 489.82965528 116.375 477.125 C107.18527429 475.99541486 107.18527429 475.99541486 98.8203125 478.90625 C97.12444453 480.90470023 95.67812917 482.8533974 94.375 485.125 C95.32375 485.558125 96.2725 485.99125 97.25 486.4375 C100.375 488.125 100.375 488.125 102.375 491.125 C102.421875 493.75390625 102.421875 493.75390625 102.125 496.6875 C101.99351562 498.14349609 101.99351562 498.14349609 101.859375 499.62890625 C101.375 502.125 101.375 502.125 99.375 504.125 C92.91346154 503.66346154 92.91346154 503.66346154 90.375 501.125 C90.045 502.775 89.715 504.425 89.375 506.125 C90.035 506.125 90.695 506.125 91.375 506.125 C92 509 92 509 92.375 512.125 C90.18041184 514.31958816 88.91816278 514.73306985 86 515.625 C83.62551904 516.35560953 81.47978054 517.07046738 79.2734375 518.21875 C77.375 519.125 77.375 519.125 74.375 519.125 C74.26542969 519.7025 74.15585938 520.28 74.04296875 520.875 C72.48662502 526.117421 68.48777304 530.19768913 64.375 533.625 C61.00300752 535.31099624 59.09103132 535.70304932 55.375 535.125 C53.5 534.0625 53.5 534.0625 52.375 532.125 C51.81454372 527.80148012 51.8963942 525.82795227 54.375 522.1875 C55.365 521.1665625 55.365 521.1665625 56.375 520.125 C55.42625 519.650625 54.4775 519.17625 53.5 518.6875 C51.79166667 517.83333333 50.08333333 516.97916667 48.375 516.125 C47.281875 516.351875 46.18875 516.57875 45.0625 516.8125 C40.43920551 517.20430462 39.82162962 515.95300379 36.375 513.125 C30.37740463 512.84604208 25.09935046 516.76672678 20.375 520.125 C17.98465801 522.63792363 16.53681124 524.81544807 14.9375 527.875 C14.421875 528.6175 13.90625 529.36 13.375 530.125 C12.2303125 530.310625 12.2303125 530.310625 11.0625 530.5 C7.83678202 531.25016697 7.41243388 532.07102791 5.4375 534.625 C3.24723674 537.38122276 2.61171254 538.04761321 -0.875 539.1875 C-3.625 539.125 -3.625 539.125 -5.625 537.125 C-10.31153017 535.67411825 -13.09857334 536.06476452 -17.359375 538.21484375 C-19.04153709 539.14571053 -20.7133218 540.09554198 -22.375 541.0625 C-24.05435942 542.01430689 -25.73653693 542.96116364 -27.421875 543.90234375 C-28.15760742 544.32765381 -28.89333984 544.75296387 -29.65136719 545.19116211 C-31.625 546.125 -31.625 546.125 -34.625 546.125 C-34.934375 546.929375 -35.24375 547.73375 -35.5625 548.5625 C-36.625 551.125 -36.625 551.125 -37.625 552.125 C-36.820625 552.33125 -36.01625 552.5375 -35.1875 552.75 C-34.341875 553.20375 -33.49625 553.6575 -32.625 554.125 C-31.8125 557.25 -31.8125 557.25 -31.625 560.125 C-36.23172499 563.06818541 -36.23172499 563.06818541 -38.70703125 563.42578125 C-39.33996094 563.65652344 -39.97289063 563.88726563 -40.625 564.125 C-41.58812926 566.27850918 -41.58812926 566.27850918 -42.0625 568.875 C-43.29512514 573.56433479 -44.71102507 576.0701903 -48.625 579.125 C-49.346875 579.455 -50.06875 579.785 -50.8125 580.125 C-53.39037467 581.54727568 -53.57654228 583.4383271 -54.625 586.125 C-56.75 587.9375 -56.75 587.9375 -58.625 589.125 C-57.965 590.115 -57.305 591.105 -56.625 592.125 C-56.72104201 595.7745962 -57.5548645 597.04563614 -60 599.8125 C-64.93710191 604.16185168 -64.93710191 604.16185168 -69.125 603.9375 C-73.8492915 602.84078947 -73.8492915 602.84078947 -75.625 600.125 C-75.625 599.135 -75.625 598.145 -75.625 597.125 C-76.800625 597.186875 -76.800625 597.186875 -78 597.25 C-80.625 597.125 -80.625 597.125 -82.625 595.125 C-82.625 593.805 -82.625 592.485 -82.625 591.125 C-84.605 591.455 -86.585 591.785 -88.625 592.125 C-88.274375 592.82625 -87.92375 593.5275 -87.5625 594.25 C-86.39992829 597.81521991 -86.43791942 599.56375826 -87.625 603.125 C-90.25 606.0625 -90.25 606.0625 -93.625 608.125 C-97.67282457 608.05753626 -99.72846497 608.02153503 -102.625 605.125 C-102.75 602 -102.75 602 -102.625 599.125 C-103.945 598.795 -105.265 598.465 -106.625 598.125 C-107.88661872 600.4680062 -108.73716874 602.53916151 -109.4375 605.125 C-111.74983687 610.96669316 -117.19841012 613.08358258 -122.5390625 615.78125 C-124.85979819 617.27625576 -125.9944229 618.92946238 -127.625 621.125 C-130.1875 621.5 -130.1875 621.5 -132.625 621.125 C-135.08778801 618.66221199 -135.62271255 616.41823018 -136.625 613.125 C-137.12 613.8675 -137.615 614.61 -138.125 615.375 C-141.64543916 619.24748308 -145.50244784 621.65920493 -150.74609375 622.44140625 C-154.77691918 622.55570187 -158.0293469 621.92282655 -161.625 620.125 C-161.955 617.815 -162.285 615.505 -162.625 613.125 C-163.6975 613.434375 -164.77 613.74375 -165.875 614.0625 C-167.1125 614.413125 -168.35 614.76375 -169.625 615.125 C-170.346875 615.3725 -171.06875 615.62 -171.8125 615.875 C-174.26558162 616.21335609 -175.55093404 615.38425433 -177.625 614.125 C-177.625 610.79166667 -177.625 607.45833333 -177.625 604.125 C-178.615 603.4753125 -178.615 603.4753125 -179.625 602.8125 C-181.625 601.125 -181.625 601.125 -182.0625 598.625 C-181.56415901 595.77733722 -180.85484785 594.89029621 -178.625 593.125 C-180.275 593.125 -181.925 593.125 -183.625 593.125 C-183.79 593.723125 -183.955 594.32125 -184.125 594.9375 C-186.4682484 598.35473724 -189.6963321 599.16056167 -193.625 600.125 C-197.43576269 600.37488608 -200.010823 600.32972567 -203.625 599.125 C-206.16423651 599.18840886 -208.65759406 599.31172793 -211.1875 599.5 C-212.18620117 599.56574219 -212.18620117 599.56574219 -213.20507812 599.6328125 C-216.04128069 599.82748036 -218.86852438 600.03611322 -221.69238281 600.36791992 C-230.8425834 601.43717707 -240.04913671 601.47866069 -249.25 601.6875 C-251.03516462 601.73077574 -252.82032101 601.77439263 -254.60546875 601.81835938 C-258.94522748 601.9245089 -263.28507178 602.02603258 -267.625 602.125 C-268.285 603.445 -268.945 604.765 -269.625 606.125 C-272 606.25 -272 606.25 -274.625 606.125 C-275.285 605.465 -275.945 604.805 -276.625 604.125 C-276.625 603.135 -276.625 602.145 -276.625 601.125 C-280.53134379 602.25349932 -282.83899474 603.21235814 -285.625 606.125 C-286.95833333 606.45833333 -288.29166667 606.79166667 -289.625 607.125 C-290.058125 607.640625 -290.49125 608.15625 -290.9375 608.6875 C-293.60801768 610.96238543 -296.26023508 610.31545839 -299.625 610.125 C-299.955 609.09375 -300.285 608.0625 -300.625 607 C-302.83564828 602.09295561 -305.76579506 599.42462374 -310.625 597.125 C-315.14170503 595.76316306 -319.75230509 594.86309593 -324.3828125 593.984375 C-327.91509559 593.31291021 -331.24041394 592.35772464 -334.625 591.125 C-334.955 592.115 -335.285 593.105 -335.625 594.125 C-339.69599522 596.8157007 -343.57006553 598.125 -348.4375 598.125 C-351.96216817 597.01922175 -353.43475519 596.07340647 -355.625 593.125 C-356.4375 591 -356.4375 591 -356.625 589.125 C-356.295 588.465 -355.965 587.805 -355.625 587.125 C-357.2646875 587.0321875 -357.2646875 587.0321875 -358.9375 586.9375 C-360.154375 586.669375 -361.37125 586.40125 -362.625 586.125 C-363.03105469 585.35929687 -363.43710938 584.59359375 -363.85546875 583.8046875 C-366.38382091 579.97588048 -369.45727273 579.09045553 -373.625 577.4375 C-375.26644526 576.74327817 -376.90570895 576.04387986 -378.54296875 575.33984375 C-379.38649902 574.97745605 -380.2300293 574.61506836 -381.09912109 574.24169922 C-401.16380251 565.37103879 -419.64751714 552.94440228 -436.625 539.125 C-437.13901367 538.70718262 -437.65302734 538.28936523 -438.18261719 537.85888672 C-456.37789006 522.98656883 -473.11353976 506.67442332 -487.28662109 487.89599609 C-488.62399764 486.12632636 -489.97778041 484.37005501 -491.33203125 482.61328125 C-498.9402949 472.61926015 -505.39148228 462.0182483 -511.625 451.125 C-512.03492187 450.41649902 -512.44484375 449.70799805 -512.8671875 448.97802734 C-549.98198933 384.29178506 -555.23692976 302.19029147 -536.31640625 231.07421875 C-531.61163513 214.13981839 -525.29743882 197.92375773 -517.625 182.125 C-517.22474609 181.29323242 -516.82449219 180.46146484 -516.41210938 179.60449219 C-504.01027808 154.10749886 -487.34393206 131.3120311 -468.625 110.125 C-468.14836914 109.58375488 -467.67173828 109.04250977 -467.18066406 108.48486328 C-454.9244739 94.65143519 -441.4601053 82.14694641 -426.625 71.125 C-426.07166992 70.70943848 -425.51833984 70.29387695 -424.94824219 69.86572266 C-415.2543891 62.61652931 -405.08283891 56.21126968 -394.625 50.125 C-393.95694336 49.7345752 -393.28888672 49.34415039 -392.60058594 48.94189453 C-349.46183815 24.07075555 -298.32195388 13.91829202 -248.9375 13.875 C-248.23078156 13.87432526 -247.52406311 13.87365051 -246.79592896 13.87295532 C-202.46834244 13.93922035 -130.9297599 23.8202401 -97.625 57.125 C-97.37331772 58.98971558 -97.37331772 58.98971558 -97.37103271 61.30029297 C-97.36539307 62.175224 -97.35975342 63.05015503 -97.35394287 63.95159912 C-97.36001556 65.39481537 -97.36001556 65.39481537 -97.36621094 66.8671875 C-97.36095398 68.38436371 -97.36095398 68.38436371 -97.35559082 69.93218994 C-97.34676107 73.28819567 -97.35262709 76.64399199 -97.359375 80 C-97.35802871 82.3240564 -97.35608848 84.64811253 -97.35357666 86.97216797 C-97.35062371 91.84800899 -97.35492857 96.72377684 -97.36425781 101.59960938 C-97.37565239 107.8613365 -97.36909384 114.1228922 -97.35711288 120.38461304 C-97.34989893 125.1851532 -97.35218008 129.98565247 -97.35736847 134.78619385 C-97.35870625 137.09556091 -97.35705279 139.40493165 -97.35240936 141.71429443 C-97.34735178 144.93723439 -97.35504365 148.15989355 -97.36621094 151.3828125 C-97.36216248 152.34495667 -97.35811401 153.30710083 -97.35394287 154.29840088 C-97.35958252 155.17333191 -97.36522217 156.04826294 -97.37103271 156.94970703 C-97.37216379 158.09344284 -97.37216379 158.09344284 -97.37331772 159.26028442 C-97.625 161.125 -97.625 161.125 -99.625 163.125 C-104.51591727 163.22281835 -106.78559475 162.27336463 -110.3515625 158.9453125 C-151.22853803 122.00153293 -208.64533122 100.73504351 -263.625 103.125 C-289.87243856 104.59882771 -314.98796968 110.63678395 -338.625 122.125 C-339.35783203 122.48110352 -340.09066406 122.83720703 -340.84570312 123.20410156 C-386.47309411 145.6939114 -423.06994578 188.07072797 -439.82055664 235.9465332 C-443.51603535 246.86697653 -446.63475812 257.76792778 -448.625 269.125 C-448.77308105 269.9303418 -448.92116211 270.73568359 -449.07373047 271.56542969 C-458.44753193 324.29684674 -448.32893306 381.59757519 -418.06665039 426.11621094 C-415.66865991 429.51800234 -413.18055183 432.84028731 -410.625 436.125 C-410.18897461 436.68799805 -409.75294922 437.25099609 -409.30371094 437.83105469 C-393.20816456 458.32187613 -373.78546558 474.6304287 -351.625 488.125 C-351.00641113 488.50237305 -350.38782227 488.87974609 -349.75048828 489.26855469 C-343.76581488 492.86165989 -339.03932448 495.26438741 -332.09814453 495.85595703 C-328.52815913 496.2443207 -325.08367063 497.05919734 -321.58178711 497.83911133 C-294.38839798 503.7914445 -267.43939516 504.39219768 -239.75 504.375 C-239.04704174 504.37479984 -238.34408348 504.37459969 -237.61982346 504.37439346 C-217.83003917 504.37545728 -217.83003917 504.37545728 -198.0546875 503.703125 C-197.3656131 503.66906555 -196.6765387 503.6350061 -195.96658325 503.59991455 C-189.83085618 503.21981573 -184.12562081 501.8753104 -178.625 499.125 C-176.41846901 499.02654586 -174.20872132 498.9952704 -172 499 C-170.81148437 498.99742187 -169.62296875 498.99484375 -168.3984375 498.9921875 C-164.625 499.125 -164.625 499.125 -160.69921875 499.69921875 C-156.32593588 500.28358892 -152.39082942 499.80436635 -148.0625 499.0625 C-147.26038086 498.9289209 -146.45826172 498.7953418 -145.63183594 498.65771484 C-138.81646484 497.45676266 -132.08839078 495.924448 -125.375 494.25 C-124.41134521 494.01788818 -123.44769043 493.78577637 -122.45483398 493.54663086 C-118.0290889 492.39156536 -114.5473013 491.31112036 -110.953125 488.4296875 C-107.9006023 486.02276196 -105.92425557 485.92496242 -102.00439453 486.18603516 C-96.55124686 486.04615347 -91.24125977 483.89505222 -86.0625 482.3125 C-63.8468267 475.73885527 -63.8468267 475.73885527 -52.71875 474.79296875 C-48.24601694 474.2469288 -44.79586099 472.5094476 -40.875 470.375 C-39.4767477 469.64687633 -38.07699132 468.92163408 -36.67578125 468.19921875 C-35.99209473 467.84520996 -35.3084082 467.49120117 -34.60400391 467.12646484 C-18.068247 458.75862931 -18.068247 458.75862931 -9.6875 461.0625 C-8.676875 461.413125 -7.66625 461.76375 -6.625 462.125 C-6.625 460.145 -6.625 458.165 -6.625 456.125 C-5.490625 455.75375 -4.35625 455.3825 -3.1875 455 C0.27669982 453.73081529 3.00716081 452.0868565 6 449.9375 C9.59862871 447.42653973 11.88012313 446.357582 16.375 447.125 C17.035 447.455 17.695 447.785 18.375 448.125 C18.2821875 446.9803125 18.2821875 446.9803125 18.1875 445.8125 C18.375 443.125 18.375 443.125 19.66796875 441.53515625 C21.88657663 439.70239322 24.32306404 439.06908737 27.0078125 438.125 C33.69424964 435.30036649 39.60478558 430.69528996 45.4375 426.4375 C48.76489972 424.05321676 51.83610849 422.44125258 55.6875 421.0625 C60.36565965 419.36002822 62.30530975 417.08328479 65.375 413.125 C67.34360635 411.71943127 69.36845844 410.50381694 71.45703125 409.28515625 C73.57942198 408.06192309 73.57942198 408.06192309 76.0625 405.9375 C78.43904583 404.07480192 80.56844178 403.18153187 83.375 402.125 C77.01822824 386.88460755 70.47183039 371.7352148 63.8125 356.625 C57.58456527 342.49270724 51.43795033 328.32884587 45.375 314.125 C38.6843921 298.45384237 31.88597995 282.83339709 25.01513672 267.24047852 C21.25734432 258.70903562 17.51912683 250.16995965 13.828125 241.609375 C13.46103424 240.75817581 13.09394348 239.90697662 12.71572876 239.02998352 C10.97327287 234.9873138 9.23425124 230.94320334 7.49951172 226.8972168 C6.8773201 225.45099128 6.2550892 224.00478266 5.6328125 222.55859375 C5.36067932 221.92085022 5.08854614 221.28310669 4.8081665 220.6260376 C2.82999982 216.03579896 0.63927796 211.58123935 -1.625 207.125 C-1.90663246 207.9080526 -1.90663246 207.9080526 -2.19395447 208.70692444 C-12.93905089 238.58123867 -23.71011459 268.44600292 -34.51611328 298.29833984 C-37.69951735 307.09313676 -40.88039704 315.88884677 -44.06149292 324.68447876 C-45.83256099 329.58135569 -47.60378848 334.47817496 -49.375 339.375 C-50.0833341 341.33333306 -50.79166743 343.29166639 -51.5 345.25 C-55.75 356.99999999 -55.75 356.99999999 -56.81233215 359.93702698 C-57.52123263 361.89693428 -58.23012544 363.85684436 -58.93901062 365.8167572 C-60.70110407 370.68853142 -62.46332724 375.56025864 -64.22583008 380.43188477 C-67.51757051 389.53080938 -70.80803767 398.63018843 -74.09408569 407.73117065 C-75.63026627 411.98550877 -77.16715843 416.23958967 -78.70410156 420.49365234 C-79.42987857 422.50312745 -80.15531483 424.51272566 -80.88037109 426.52246094 C-82.82320291 431.90753359 -84.77118461 437.29066158 -86.730896 442.6696167 C-87.32582343 444.30340301 -87.9192947 445.93772031 -88.5112915 447.5725708 C-89.3312304 449.83307623 -90.15854043 452.0907335 -90.98828125 454.34765625 C-91.22773972 455.01139755 -91.46719818 455.67513885 -91.71391296 456.35899353 C-92.74648457 459.14439664 -93.49707075 460.99707075 -95.625 463.125 C-98.6273537 463.32389816 -101.53750098 463.39763848 -104.54101562 463.38378906 C-105.92651863 463.38904602 -105.92651863 463.38904602 -107.3400116 463.39440918 C-110.4038334 463.40323676 -113.4674257 463.39737371 -116.53125 463.390625 C-118.65352422 463.39197135 -120.77579813 463.39391164 -122.89807129 463.39642334 C-127.35020885 463.399376 -131.80226627 463.3950724 -136.25439453 463.38574219 C-141.97131987 463.37434761 -147.68805745 463.38090632 -153.40497589 463.39288712 C-157.78860905 463.40010188 -162.17219743 463.39781955 -166.55583191 463.39263153 C-168.66424074 463.39129397 -170.7726536 463.39294644 -172.88105774 463.39759064 C-175.82381006 463.40264956 -178.76625504 463.39495454 -181.70898438 463.38378906 C-182.58697189 463.38783752 -183.46495941 463.39188599 -184.36955261 463.39605713 C-190.39647234 463.35352766 -190.39647234 463.35352766 -192.625 461.125 C-193.20756719 456.06943089 -191.7283512 452.20813401 -189.72265625 447.66796875 C-189.41413727 446.9454744 -189.10561829 446.22298004 -188.78775024 445.47859192 C-188.11690245 443.91086896 -187.44115532 442.3452354 -186.76107788 440.78149414 C-185.28546406 437.38790534 -183.8339971 433.98414321 -182.38038635 430.58108521 C-181.61540784 428.79121618 -180.84914163 427.001897 -180.08164978 425.21310425 C-176.08001229 415.88278317 -172.19038691 406.50727091 -168.3125 397.125 C-167.60696409 395.42077074 -166.90131527 393.71658821 -166.19555664 392.01245117 C-160.02516557 377.10943189 -153.87147284 362.19949534 -147.71606445 347.2902832 C-140.40178426 329.57565775 -133.06254692 311.87143328 -125.71777344 294.16943359 C-122.5403393 286.5110264 -119.36502271 278.85174117 -116.18951416 271.1925354 C-114.41809311 266.91998891 -112.64653998 262.64749718 -110.875 258.375 C-110.16666603 256.66666693 -109.4583327 254.9583336 -108.75 253.25 C-36.5 78.99999999 -36.5 78.99999999 -35.43772888 76.43809509 C-34.72859197 74.72779497 -34.01949577 73.01747796 -33.31044006 71.30714417 C-31.55223303 67.06626419 -29.79334575 62.82566904 -28.03295898 58.58569336 C-24.69382044 50.54112441 -21.36229789 42.49360036 -18.05276489 34.4367981 C-16.47974774 30.60852152 -14.90310828 26.78174167 -13.32617188 22.95507812 C-12.57158391 21.12102813 -11.81879425 19.28623714 -11.06787109 17.45068359 C-10.03018373 14.91447689 -8.98646929 12.38083079 -7.94140625 9.84765625 C-7.63388931 9.09142471 -7.32637238 8.33519318 -7.00953674 7.55604553 C-3.95558746 0.18836131 -3.95558746 0.18836131 0 0 Z M151.375 101.125 C151.705 101.785 152.035 102.445 152.375 103.125 C152.705 102.465 153.035 101.805 153.375 101.125 C152.715 101.125 152.055 101.125 151.375 101.125 Z M63.375 514.125 C62.3489266 515.43837396 61.34772675 516.77164105 60.375 518.125 C61.365 518.125 62.355 518.125 63.375 518.125 C63.705 516.805 64.035 515.485 64.375 514.125 C64.045 514.125 63.715 514.125 63.375 514.125 Z " fill="#B42025" transform="translate(2647.625,1228.875)"/>
<path d="M0 0 C0.66 0 1.32 0 2 0 C2.28907227 0.67313232 2.57814453 1.34626465 2.87597656 2.03979492 C10.01445769 18.63883068 17.27591496 35.18064247 24.625 51.6875 C25.04937347 52.64069122 25.47374695 53.59388245 25.91098022 54.57595825 C26.33891876 55.53710541 26.7668573 56.49825256 27.20776367 57.48852539 C28.0773254 59.44156269 28.94687289 61.39460633 29.81640625 63.34765625 C30.24847885 64.31808365 30.68055145 65.28851105 31.12571716 66.28834534 C35.62281268 76.3925413 40.09516315 86.50761875 44.5625 96.625 C44.95205872 97.50715179 45.34161743 98.38930359 45.74298096 99.29818726 C47.70931858 103.75107081 49.67531508 108.20410485 51.64111328 112.65722656 C55.19591148 120.70941795 58.75398101 128.76016384 62.31176758 136.81103516 C63.49897146 139.49767242 64.68603301 142.18437252 65.87304688 144.87109375 C69.44354956 152.952551 73.01458675 161.03377014 76.58818054 169.11386108 C78.5799603 173.61742377 80.57133753 178.12116436 82.5625 182.625 C82.95631866 183.51576233 83.35013733 184.40652466 83.75588989 185.32427979 C89.87821554 199.17449911 95.96861538 213.03850687 102.04763794 226.90777588 C108.4051706 241.40824377 114.82630535 255.87985513 121.26620483 270.34390259 C127.30073975 283.8994209 133.29462217 297.47202654 139.25 311.0625 C144.75275734 323.61656353 150.26697481 336.16535633 155.82507324 348.69503784 C156.51461014 350.24986297 157.20351377 351.80496912 157.89172363 353.36038208 C158.83995217 355.50283407 159.79069713 357.64415124 160.7421875 359.78515625 C161.2769873 360.99051025 161.81178711 362.19586426 162.36279297 363.43774414 C164.15640751 367.34031346 166.06046392 371.16811145 168 375 C176.87733324 355.81558176 185.74142976 336.6259607 194.47000122 317.37332153 C199.44569547 306.39965312 204.46284172 295.44558428 209.5 284.5 C214.86264924 272.84650711 220.20047445 261.18233569 225.5 249.5 C230.78060356 237.86023736 236.09625461 226.23706084 241.4375 214.625 C246.99260582 202.54777971 252.5378965 190.46620742 258.0625 178.375 C258.3906369 177.6568512 258.7187738 176.93870239 259.05685425 176.1987915 C260.71015827 172.58021823 262.36319613 168.96152345 264.01611328 165.34277344 C267.67583743 157.33091443 271.33887603 149.32056997 275.00128174 141.30993652 C276.00217675 139.12069607 277.00305015 136.93144574 278.00390625 134.7421875 C278.33410767 134.01990967 278.66430908 133.29763184 279.0045166 132.5534668 C280.99514746 128.19891623 282.98503384 123.84402635 284.97431946 119.48886108 C286.6284612 115.86745901 288.28290236 112.2461938 289.9375 108.625 C290.26555634 107.90701233 290.59361267 107.18902466 290.93161011 106.44927979 C295.76909901 95.86352052 300.62403217 85.28587594 305.48757935 74.71206665 C311.02812322 62.66594933 316.55540415 50.61404427 322.04260254 38.54351807 C322.67588946 37.15045641 323.30943031 35.75751017 323.9432373 34.36468506 C326.94510037 27.76734673 329.93576384 21.16594683 332.86328125 14.53515625 C333.28416016 13.58519775 333.70503906 12.63523926 334.13867188 11.65649414 C334.89448998 9.9459998 335.64492622 8.23311203 336.38867188 6.51733398 C338.77857754 1.11071123 338.77857754 1.11071123 341 0 C346.41275882 28.93872999 351.60165391 57.91437639 356.67578125 86.9140625 C356.82495695 87.76659615 356.97413266 88.6191298 357.12782884 89.4974978 C359.02690266 100.35236372 360.92260687 111.20781724 362.81755227 122.0634045 C365.73739794 138.78882575 368.66440053 155.51299697 371.59038734 172.23734474 C372.29697751 176.27609538 373.00347468 180.31486226 373.70989037 184.35364342 C380.63763943 223.96098981 387.5973075 263.56267151 394.57404709 303.1614151 C395.43539196 308.05034536 396.29646485 312.9393235 397.15750122 317.82830811 C403.01510763 351.08709668 408.88146116 384.34432394 414.76503593 417.59852904 C415.77713643 423.31908734 416.78883908 429.03971588 417.80027771 434.76039124 C417.94029266 435.55229184 418.08030762 436.34419244 418.22456545 437.16009003 C418.78308943 440.31901941 419.34161043 443.47794932 419.90008104 446.63688815 C421.51125821 455.75018616 423.12412193 464.8631817 424.73998874 473.97564942 C425.73000678 479.55932796 426.71828036 485.14331336 427.70515114 490.72754902 C428.27113928 493.92977454 428.8382983 497.1317853 429.40715981 500.33350182 C430.02084252 503.78800749 430.6314219 507.24304742 431.24121094 510.69824219 C431.4217121 511.70977387 431.60221327 512.72130556 431.78818417 513.76348972 C431.94958669 514.68174502 432.11098921 515.60000032 432.27728271 516.54608154 C432.41790005 517.33971478 432.55851738 518.13334801 432.70339584 518.95103073 C433 521 433 521 433 524 C407.92 524 382.84 524 357 524 C355.78405288 519.74418507 354.73528047 516.03251485 354.05391598 511.75297737 C353.89379778 510.76082257 353.73367958 509.76866778 353.56870931 508.74644768 C353.40012444 507.67416322 353.23153957 506.60187876 353.05784607 505.49710083 C352.87308293 504.34434721 352.68831979 503.19159359 352.49795777 502.00390804 C351.98823424 498.81829556 351.4823524 495.63210072 350.97809327 492.44561958 C350.43250624 489.00415376 349.88191673 485.56348803 349.33190918 482.12272644 C348.38033928 476.16571173 347.43181696 470.2082183 346.48528862 464.25040054 C345.11650546 455.63523717 343.74219475 447.02096248 342.36638284 438.40691911 C340.13388871 424.42866231 337.90462609 410.44989238 335.67797852 396.47070312 C335.47820199 395.21649023 335.47820199 395.21649023 335.27438957 393.9369397 C334.46408342 388.84966842 333.65385069 383.76238545 332.84363747 378.67509937 C331.62643571 371.03240275 330.40912809 363.38972299 329.19165039 355.74707031 C329.05832644 354.91012902 328.92500249 354.07318773 328.78763842 353.21088459 C326.5677231 339.27601407 324.34461085 325.34165537 322.11923081 311.40765655 C320.74624534 302.80982082 319.37620544 294.21152532 318.00991464 285.61262314 C317.07488398 279.72905533 316.13700185 273.84594681 315.19683438 267.96319766 C314.65384431 264.56495842 314.1122426 261.1665121 313.57418251 257.76748848 C312.99157611 254.09138434 312.40402375 250.41610511 311.81517029 246.74099731 C311.5589469 245.11249413 311.5589469 245.11249413 311.29754728 243.45109189 C311.0612816 241.98632942 311.0612816 241.98632942 310.82024288 240.49197578 C310.68500743 239.64253871 310.54977198 238.79310164 310.41043848 237.91792405 C310.18182344 236.00066362 310.18182344 236.00066362 309 235 C308.32299612 236.48094598 307.64599323 237.96189241 306.96899414 239.44284058 C306.35231023 240.79182625 305.73561041 242.14080466 305.11889648 243.48977661 C303.34973145 247.359635 301.58087066 251.22963205 299.8125 255.09985352 C296.19337689 263.0197981 292.57094951 270.93817929 288.9375 278.8515625 C287.62434712 281.71324261 286.31187531 284.57523399 285 287.4375 C284.67178253 288.15359436 284.34356506 288.86968872 284.00540161 289.60748291 C278.55135124 301.5169503 273.22585336 313.48049023 267.93261719 325.46212769 C262.96266314 336.70153722 257.82944321 347.8520872 252.57247925 358.95980835 C247.55449585 369.57107378 242.73590284 380.26009854 238 391 C232.97212575 402.40202318 227.8309643 413.73645403 222.5 425 C216.90874532 436.81591372 211.53664662 448.71458679 206.26330566 460.67550659 C200.34655192 474.08495996 194.2209314 487.39051568 188.03244019 500.67645264 C181.18605452 515.37872371 174.50310825 530.14227297 168 545 C167.01 545 166.02 545 165 545 C156.69825349 526.37674653 148.43268636 507.73840311 140.25 489.0625 C133.89687401 474.5641989 127.49837649 460.0867564 121.0625 445.625 C114.50215766 430.88320423 107.955896 416.1353966 101.4375 401.375 C101.04848511 400.49417755 100.65947021 399.6133551 100.25866699 398.70584106 C97.90195593 393.36940637 95.54589939 388.0326829 93.19006348 382.69586182 C89.56515511 374.48432332 85.93924729 366.27322647 82.3125 358.0625 C81.91603271 357.1648291 81.51956543 356.2671582 81.11108398 355.34228516 C76.06148681 343.910286 70.99644072 332.48531777 65.91375732 321.06799316 C59.79939909 307.33314532 53.72766213 293.5801455 47.6875 279.8125 C47.30698486 278.94534363 46.92646973 278.07818726 46.53442383 277.18475342 C43.11401317 269.38939462 39.69531265 261.5932971 36.28642273 253.79289246 C35.48636695 251.96275991 34.68522359 250.13310292 33.8840332 248.3034668 C32.94828256 246.16648081 32.0143994 244.0286757 31.08276367 241.88989258 C30.6829126 240.97747803 30.28306152 240.06506348 29.87109375 239.125 C29.53005615 238.34382813 29.18901855 237.56265625 28.83764648 236.7578125 C28.12808395 235.01670037 28.12808395 235.01670037 27 234 C26.84651911 234.86549312 26.69303822 235.73098623 26.53490639 236.62270641 C16.69929342 292.08619472 6.86003192 347.54903484 -2.98453903 403.01093388 C-4.56791553 411.93132251 -6.15122036 420.8517238 -7.73400879 429.7722168 C-10.44586429 445.05592653 -13.1592133 460.33936824 -15.8772583 475.62197876 C-16.62401077 479.82115864 -17.36969277 484.02052644 -18.11444092 488.22006226 C-18.96309807 493.00534287 -19.81379464 497.79025579 -20.66630173 502.57485199 C-20.96670819 504.26287925 -21.26636099 505.95104085 -21.5651741 507.63935089 C-21.96064447 509.87314279 -22.35884187 512.10643067 -22.7578125 514.33959961 C-22.9758252 515.56617783 -23.19383789 516.79275604 -23.41845703 518.0565033 C-24 521 -24 521 -25 524 C-50.41 524 -75.82 524 -102 524 C-99.75002184 509.37514199 -99.75002184 509.37514199 -98.77102661 504.40066528 C-98.43644455 502.69021986 -98.43644455 502.69021986 -98.09510326 500.94521999 C-97.85634126 499.73884915 -97.61757925 498.53247831 -97.37158203 497.28955078 C-97.11044634 495.95986649 -96.84954829 494.63013551 -96.58886433 493.30036259 C-95.88051727 489.69049222 -95.16890536 486.08127241 -94.45672679 482.47215629 C-93.69003476 478.58357881 -92.92650229 474.6943809 -92.16261292 470.80525208 C-90.84429703 464.09550069 -89.52414073 457.38611364 -88.20272827 450.67697144 C-86.09951904 439.99817686 -84.00023495 429.31861258 -81.90161133 418.63891602 C-81.18600379 414.99744895 -80.470377 411.35598567 -79.75474548 407.71452332 C-79.57676943 406.80888116 -79.39879338 405.90323901 -79.21542412 404.97015315 C-77.94414935 398.50141156 -76.6723793 392.03276746 -75.40040588 385.56416321 C-68.76524937 351.82005526 -62.15142839 318.0717891 -55.54567337 284.32191467 C-54.68524587 279.92589326 -53.82467658 275.52989961 -52.96408081 271.13391113 C-29.62325546 151.91336477 -29.62325546 151.91336477 0 0 Z " fill="#1A7139" transform="translate(1239,1240)"/>
<path d="M0 0 C0 29.37 0 58.74 0 89 C-2.64 87.02 -5.28 85.04 -8 83 C-35.06255489 63.38945298 -63.15808735 47.35885482 -96 40 C-97.05018311 39.7522583 -97.05018311 39.7522583 -98.12158203 39.49951172 C-139.95883884 29.95560341 -187.25914287 39.12294415 -223.39331055 61.59838867 C-264.15100512 87.84316817 -293.23489108 129.44126078 -303.93359375 176.65234375 C-313.9655905 224.69655339 -307.53516316 277.06706983 -280.64453125 318.71875 C-273.65314857 329.18864801 -265.5755462 338.80346597 -257 348 C-256.31421875 348.73992187 -255.6284375 349.47984375 -254.921875 350.2421875 C-228.56235718 377.67561161 -191.54567332 394.65420201 -154 399 C-153.11441406 399.11085938 -152.22882813 399.22171875 -151.31640625 399.3359375 C-98.42424272 404.88773906 -52.78264253 386.78604596 -12 354 C-9.00147184 351.55597537 -6.0158613 349.09706334 -3.046875 346.6171875 C-1 345 -1 345 0 345 C0 374.7 0 404.4 0 435 C-27.30460373 450.6026307 -55.98009562 461.51085773 -87 467 C-87.82161621 467.16081055 -88.64323242 467.32162109 -89.48974609 467.48730469 C-117.85279046 472.94931641 -150.64278848 472.36056167 -179 467 C-179.91120605 466.83902832 -180.82241211 466.67805664 -181.76123047 466.51220703 C-220.62831459 459.5278061 -257.42640506 443.03262208 -288 418 C-288.52754883 417.56864746 -289.05509766 417.13729492 -289.59863281 416.69287109 C-344.12468348 371.89777428 -374.90968471 314.15022501 -383.46484375 244.19921875 C-389.49037001 177.91842986 -369.53140689 111.59551897 -327.52734375 60.01171875 C-324.44596525 56.3397824 -321.28871395 52.75379711 -318.04296875 49.2265625 C-316.17040692 47.18572074 -314.36170466 45.10536303 -312.5625 43 C-305.08353289 34.45506516 -296.89402836 27.03522349 -288 20 C-286.95195825 19.13943981 -285.90512103 18.27741097 -284.859375 17.4140625 C-212.40637358 -41.78782121 -107.41227218 -49.47282745 0 0 Z " fill="#B09264" transform="translate(706,1302)"/>
<path d="M0 0 C0.80937012 0.00087616 1.61874023 0.00175232 2.45263672 0.00265503 C36.82955589 0.1248619 69.53370176 8.79467971 96.125 31.375 C96.96546875 32.07625 97.8059375 32.7775 98.671875 33.5 C130.85404843 61.14643087 143.44369452 103.26994279 146.56030273 144.19116211 C147.38600163 156.11863349 147.31858606 167.4391394 146.125 179.375 C73.855 179.375 1.585 179.375 -72.875 179.375 C-67.92595762 206.59473307 -61.25411515 230.04819661 -38.37890625 246.78515625 C-19.16028594 258.98793077 2.99844323 262.31030728 25.3125 258.125 C55.58851495 250.95869027 71.74439758 225.76535591 88.125 201.375 C92.29223084 202.65462521 95.94113276 204.22451567 99.73828125 206.359375 C100.81013672 206.95854736 101.88199219 207.55771973 102.98632812 208.17504883 C104.12521484 208.81853271 105.26410156 209.4620166 106.4375 210.125 C107.62799571 210.79302451 108.81875486 211.46057975 110.00976562 212.12768555 C112.4749522 213.50942529 114.93850209 214.89402129 117.40087891 216.28076172 C121.04723712 218.33320215 124.70054669 220.37301545 128.35546875 222.41015625 C130.61204601 223.66915102 132.86855906 224.92826091 135.125 226.1875 C136.18630127 226.77950195 137.24760254 227.37150391 138.34106445 227.98144531 C139.81192505 228.80467285 139.81192505 228.80467285 141.3125 229.64453125 C142.17230469 230.12510986 143.03210937 230.60568848 143.91796875 231.10083008 C145.69359672 232.12594096 147.41905196 233.23770131 149.125 234.375 C147.73879382 239.30959267 145.49907572 243.24698661 142.625 247.4375 C142.18357666 248.08871826 141.74215332 248.73993652 141.28735352 249.41088867 C134.26808857 259.66043403 126.68254931 269.35488046 118.125 278.375 C117.65755371 278.87499512 117.19010742 279.37499023 116.70849609 279.89013672 C91.32473444 306.89990446 56.83123615 323.2261017 19.58569336 324.58178711 C14.70276211 324.70229474 9.82161776 324.70900244 4.9375 324.6875 C3.64798935 324.68476578 3.64798935 324.68476578 2.33242798 324.68197632 C-10.27737661 324.63695649 -22.5490772 324.27588894 -34.875 321.375 C-35.61830566 321.20871094 -36.36161133 321.04242187 -37.12744141 320.87109375 C-59.36407376 315.76899837 -79.72778396 305.39229455 -96.875 290.375 C-98.04289063 289.40626953 -98.04289063 289.40626953 -99.234375 288.41796875 C-105.23949952 283.33432024 -110.0833594 277.59813251 -114.875 271.375 C-115.54402344 270.52164062 -116.21304688 269.66828125 -116.90234375 268.7890625 C-131.30831989 249.79029 -140.29232473 227.68358771 -144.875 204.375 C-145.03871094 203.5485498 -145.20242188 202.72209961 -145.37109375 201.87060547 C-154.12840123 154.98101389 -147.77378557 101.41569573 -121.34765625 61.04150391 C-118.06457844 56.31633625 -114.54176903 51.80681578 -110.875 47.375 C-110.09253906 46.42109375 -109.31007813 45.4671875 -108.50390625 44.484375 C-103.22093044 38.3444459 -97.28954541 33.2975829 -90.875 28.375 C-89.57949219 27.35599609 -89.57949219 27.35599609 -88.2578125 26.31640625 C-62.77871271 6.92356026 -31.54461542 -0.08381772 0 0 Z M-51.44091797 87.72460938 C-58.41575415 95.75148929 -67.875 109.48690359 -67.875 120.375 C-21.675 120.375 24.525 120.375 72.125 120.375 C70.70011857 113.96303356 69.4226804 109.14153487 66.5 103.5 C66.14808594 102.81236572 65.79617188 102.12473145 65.43359375 101.41625977 C56.88895597 85.13089474 45.05476659 73.62362639 27.25 68 C-0.88606684 59.8906073 -31.2765203 66.11663157 -51.44091797 87.72460938 Z " fill="#B09264" transform="translate(917.875,1447.625)"/>
</svg>
